<svg width="24" height="24" viewBox="0 0 24 24" fill="none" xmlns="http://www.w3.org/2000/svg">
<path d="M11 20.75C5.62 20.75 1.25 16.38 1.25 11C1.25 5.62 5.62 1.25 11 1.25C16.38 1.25 20.75 5.62 20.75 11C20.75 16.38 16.38 20.75 11 20.75ZM11 2.75C6.45 2.75 2.75 6.45 2.75 11C2.75 15.55 6.45 19.25 11 19.25C15.55 19.25 19.25 15.55 19.25 11C19.25 6.45 15.55 2.75 11 2.75Z" fill="#5ED5A8"/>
<path d="M20.16 22.79C20.08 22.79 20 22.78 19.93 22.77C19.46 22.71 18.61 22.39 18.13 20.96C17.88 20.21 17.97 19.46 18.38 18.89C18.79 18.32 19.48 18 20.27 18C21.29 18 22.09 18.39 22.45 19.08C22.81 19.77 22.71 20.65 22.14 21.5C21.43 22.57 20.66 22.79 20.16 22.79ZM19.56 20.49C19.73 21.01 19.97 21.27 20.13 21.29C20.29 21.31 20.59 21.12 20.9 20.67C21.19 20.24 21.21 19.93 21.14 19.79C21.07 19.65 20.79 19.5 20.27 19.5C19.96 19.5 19.73 19.6 19.6 19.77C19.48 19.94 19.46 20.2 19.56 20.49Z" fill="#5ED5A8"/>
<path opacity="0.1" d="M17.0622 7.49992C16.5253 6.57006 15.7818 5.77616 14.889 5.17963C13.9962 4.58311 12.9782 4.19996 11.9137 4.05981C10.8492 3.91966 9.76667 4.02628 8.74994 4.37141C7.73321 4.71654 6.8095 5.29094 6.05027 6.05017C5.29104 6.8094 4.71664 7.73311 4.3715 8.74985C4.02637 9.76658 3.91975 10.8491 4.0599 11.9136C4.20005 12.9781 4.5832 13.9962 5.17973 14.8889C5.77625 15.7817 6.57015 16.5252 7.50001 17.0621L11 10.9999L17.0622 7.49992Z" fill="#5ED5A8"/>
</svg>
